<svg xmlns="http://www.w3.org/2000/svg" viewBox="0 0 128 128">
  <path fill="#FF9900" d="M38.089 77.466l-11.4 4.313 10.366 4.313 11.4-4.313zm-11.4 7.216v13.216l11.4 4.313v-13.216zm27.742-7.216l-11.4 4.313 10.366 4.313 11.4-4.313zm-11.4 7.216v13.216l11.4 4.313v-13.216zM38.089 64.25l-11.4 4.313 10.366 4.313 11.4-4.313zm-11.4 7.216v13.216l11.4 4.313V75.779zm27.742-7.216l-11.4 4.313 10.366 4.313 11.4-4.313zm-11.4 7.216v13.216l11.4 4.313V75.779z"/>
  <path fill="#252F3E" d="M60.731 33.421l-11.4 4.313 10.366 4.313 11.4-4.313zm-11.4 7.216v13.216l11.4 4.313V44.95zM72.73 33.421l-11.4 4.313 10.366 4.313 11.4-4.313zm-11.4 7.216v13.216l11.4 4.313V44.95z"/>
  <path fill="#FF9900" d="M48.931 20.205l-11.4 4.313 10.366 4.313 11.4-4.313zm-11.4 7.216v13.216l11.4 4.313V31.734zm27.742-7.216l-11.4 4.313 10.366 4.313 11.4-4.313zm-11.4 7.216v13.216l11.4 4.313V31.734z"/>
  <path fill="#252F3E" d="M86.926 20.205l-11.4 4.313 10.366 4.313 11.4-4.313zm-11.4 7.216v13.216l11.4 4.313V31.734z"/>
</svg>
