<svg xmlns="http://www.w3.org/2000/svg" viewBox="0 0 128 128">
  <defs>
    <linearGradient id="cloudGrad" x1="0%" y1="0%" x2="100%" y2="100%">
      <stop offset="0%" style="stop-color:#4285F4;stop-opacity:1" />
      <stop offset="100%" style="stop-color:#34A853;stop-opacity:1" />
    </linearGradient>
  </defs>
  <path fill="url(#cloudGrad)" d="M88 48c0-13.3-10.7-24-24-24-10.2 0-18.9 6.4-22.4 15.4C38.4 40.5 36.3 40 34 40c-11 0-20 9-20 20s9 20 20 20h54c11 0 20-9 20-20s-9-20-20-20z"/>
  <circle cx="40" cy="88" r="6" fill="#4285F4"/>
  <circle cx="64" cy="96" r="6" fill="#34A853"/>
  <circle cx="88" cy="88" r="6" fill="#FBBC04"/>
  <line x1="40" y1="88" x2="64" y2="96" stroke="#666" stroke-width="2" stroke-dasharray="2,2"/>
  <line x1="64" y1="96" x2="88" y2="88" stroke="#666" stroke-width="2" stroke-dasharray="2,2"/>
</svg>
