<svg xmlns="http://www.w3.org/2000/svg" viewBox="0 0 128 128"><path fill="#202123" d="M120.5 54c-2.6-6.6-8.5-11.8-15.5-13.8 3.9-5.6 5-12.7 3.1-19.3-1.9-6.6-6.6-11.8-12.9-14.1l-.8-.3c-6.8-2.4-14.3-1.4-20.3 2.6-5.6-3.9-12.7-5-19.3-3.1-6.6 2.1-11.8 7.3-14.1 13.6l-.3.8c-2.4 6.8-1.4 14.3 2.6 20.3-3.9 5.6-5 12.7-3.1 19.3 1.9 6.6 6.6 11.8 12.9 14.1l.8.3c6.8 2.4 14.3 1.4 20.3-2.6 5.6 3.9 12.7 5 19.3 3.1 6.6-2.1 11.8-7.3 14.1-13.6l.3-.8c2.4-6.8 1.4-14.3-2.6-20.3 3.9-5.6 5-12.7 3.1-19.3zM64 78c-7.7 0-14-6.3-14-14s6.3-14 14-14 14 6.3 14 14-6.3 14-14 14z"/></svg>