<svg xmlns="http://www.w3.org/2000/svg" viewBox="0 0 128 128">
  <path fill="#00758F" d="M64 8C28.7 8 0 20.1 0 35.2v57.6C0 107.9 28.7 120 64 120s64-12.1 64-27.2V35.2C128 20.1 99.3 8 64 8z"/>
  <ellipse cx="64" cy="35.2" rx="64" ry="27.2" fill="#00BCF2"/>
  <path fill="#00758F" d="M64 62.4c35.3 0 64-12.2 64-27.2v27.2c0 15-28.7 27.2-64 27.2S0 77.4 0 62.4V35.2c0 15 28.7 27.2 64 27.2z" opacity="0.7"/>
  <path fill="#00758F" d="M64 89.6c35.3 0 64-12.2 64-27.2v27.2c0 15-28.7 27.2-64 27.2S0 104.6 0 89.6V62.4c0 15 28.7 27.2 64 27.2z" opacity="0.5"/>
</svg>
